<?xml version="1.0" encoding="UTF-8"?> <svg xmlns="http://www.w3.org/2000/svg" width="109" height="50" viewBox="0 0 109 50" fill="none"> <path d="M43.4261 18.2877L43.5491 20.3701C43.5628 21.0391 43.7131 21.5835 44 22H41.1546C40.9086 21.6065 40.7788 21.049 40.7652 20.3308L40.7037 18.796C40.6627 17.9433 40.4612 17.3497 40.0991 17.0152C39.737 16.6807 39.1597 16.5135 38.3706 16.5135H34.7635V21.9967H32V8H38.6132C40.2357 8 41.4996 8.35419 42.4014 9.06255C43.3032 9.77091 43.7541 10.7318 43.7541 11.9518C43.7541 13.6308 42.9411 14.7426 41.3185 15.2935C42.0564 15.5165 42.5858 15.8674 42.9069 16.3462C43.2246 16.8316 43.3954 17.4776 43.4261 18.2877ZM34.7635 10.1907V14.4376H38.4492C39.228 14.4376 39.8326 14.2506 40.263 13.8768C40.6934 13.5029 40.9086 12.9618 40.9086 12.2535C40.9086 11.5844 40.6866 11.0729 40.2425 10.7187C39.7985 10.3645 39.1665 10.1874 38.3501 10.1874H34.7635V10.1907Z" fill="#111111"></path> <path d="M54 22.7553H51.4398C51.3177 22.5378 51.2228 22.1097 51.155 21.4708C50.4497 22.4903 49.3238 23 47.781 23C46.628 23 45.7125 22.7213 45.0275 22.164C44.3425 21.6067 44 20.8319 44 19.8431C44 17.9299 45.3428 16.8357 48.0251 16.5638L49.6121 16.4211C50.1411 16.3531 50.5209 16.2274 50.7515 16.0439C50.982 15.8604 51.0973 15.5851 51.0973 15.2181C51.0973 14.7695 50.9515 14.4399 50.6599 14.2292C50.3683 14.0185 49.8766 13.9132 49.1848 13.9132C48.4388 13.9132 47.903 14.0389 47.5775 14.2904C47.2519 14.5419 47.0621 14.9734 47.0078 15.5851H44.4883C44.6375 13.1962 46.2075 12 49.2052 12C52.118 12 53.5761 13.0534 53.5761 15.1569V20.7572C53.5727 21.6849 53.7152 22.3475 54 22.7553ZM48.3913 21.1684C49.1916 21.1684 49.8427 20.9475 50.3411 20.5057C50.843 20.0639 51.0939 19.4285 51.0939 18.6027V17.6444C50.8498 17.8619 50.4496 18.0046 49.8935 18.0726L48.51 18.2357C47.8318 18.3173 47.3469 18.477 47.0553 18.7148C46.7637 18.9527 46.6178 19.296 46.6178 19.7445C46.6178 20.1931 46.7704 20.5431 47.0756 20.7945C47.3842 21.0426 47.8216 21.1684 48.3913 21.1684Z" fill="#111111"></path> <path d="M60.4874 11.6181C61.5752 11.6181 62.4299 11.9363 63.0579 12.5726C63.686 13.209 64 14.1111 64 15.2755V22H61.5558V15.6888C61.5558 14.403 60.9277 13.7634 59.6748 13.7634C59.0532 13.7634 58.5255 13.9897 58.095 14.4424C57.6612 14.895 57.4442 15.5216 57.4442 16.3186V22H55V8H57.4442V13.209C58.205 12.1495 59.2184 11.6181 60.4874 11.6181Z" fill="#111111"></path> <path d="M70 22H67V11.6925H70V22ZM69.9762 10.3561H67.0238V8H69.9762V10.3561Z" fill="#111111"></path> <path d="M82.4884 12C83.5949 12 84.4541 12.316 85.0724 12.9479C85.6908 13.5798 86 14.4455 86 15.5419V22H83.5428V15.921C83.5428 14.6825 82.9635 14.0664 81.8082 14.0664C81.1833 14.0664 80.6789 14.2844 80.2949 14.7204C79.9108 15.1564 79.7188 15.7915 79.7188 16.6224V22H77.2812V15.921C77.2812 14.6825 76.6954 14.0664 75.527 14.0664C74.9152 14.0664 74.4172 14.2844 74.0332 14.7204C73.6492 15.1564 73.4571 15.7915 73.4571 16.6224V22H71V12.2275H73.379V13.6303C74.069 12.5434 75.0225 12.0032 76.2462 12.0032C77.7824 12.0032 78.8206 12.6098 79.3673 13.8199C80.1191 12.6066 81.1605 12 82.4884 12Z" fill="#111111"></path> <path d="M96.6277 21.4917C95.7128 22.4972 94.5089 23 93.0095 23C91.5102 23 90.3062 22.4972 89.3914 21.4917C88.4638 20.4997 88 19.1714 88 17.5C88 15.8286 88.4638 14.5003 89.3914 13.5083C90.3062 12.5028 91.5102 12 93.0095 12C94.5089 12 95.7128 12.496 96.6277 13.488C97.5426 14.4799 98 15.815 98 17.5C98 19.1544 97.5426 20.4861 96.6277 21.4917ZM91.1353 20.0037C91.5864 20.588 92.2122 20.8802 93.0095 20.8802C93.81 20.8802 94.4359 20.5846 94.8838 19.9935C95.3348 19.4024 95.5603 18.5701 95.5603 17.5C95.5603 16.4265 95.3348 15.5976 94.8838 15.0065C94.4327 14.4154 93.8069 14.1198 93.0095 14.1198C92.209 14.1198 91.5832 14.412 91.1353 14.9963C90.6842 15.5806 90.4587 16.4163 90.4587 17.5C90.4587 18.5837 90.6842 19.4194 91.1353 20.0037Z" fill="#111111"></path> <path d="M105.572 14.6738L106.52 12H109L105.363 22H102.618L99 12H101.556L102.504 14.6932C102.946 16.1028 103.458 17.8002 104.039 19.7885C104.504 18.1882 105.016 16.4843 105.572 14.6738Z" fill="#111111"></path> <path d="M37.1687 42C35.2149 42 33.6997 41.563 32.6265 40.6889C31.5534 39.8149 31.0101 38.5677 31 36.9406H33.6895C33.703 37.9626 34.0101 38.6921 34.6108 39.1358C35.2115 39.5796 36.0922 39.8014 37.2497 39.8014C38.1946 39.8014 38.9134 39.6233 39.4128 39.2669C39.9123 38.9106 40.162 38.3962 40.162 37.7239C40.162 37.1591 39.9494 36.7288 39.5242 36.433C39.099 36.1372 38.3262 35.875 37.2092 35.6464L35.9944 35.4043C32.9066 34.8261 31.3611 33.3772 31.3611 31.0509C31.3611 29.8138 31.8335 28.8321 32.7784 28.0993C33.7233 27.3664 35.0293 27 36.703 27C38.6029 27 40.0439 27.4034 41.0225 28.2102C42.0011 29.017 42.5174 30.1432 42.5714 31.5955H39.9224C39.8684 30.7752 39.5951 30.1701 39.1024 29.7802C38.6097 29.3902 37.8234 29.1952 36.7469 29.1952C35.91 29.1952 35.2689 29.3498 34.8268 29.6591C34.3813 29.9684 34.1586 30.4054 34.1586 30.9702C34.1586 31.5484 34.3645 31.9922 34.7762 32.3014C35.1879 32.6107 35.9201 32.8729 36.9696 33.0881L38.225 33.3301C39.9089 33.6663 41.1271 34.1672 41.8763 34.8328C42.6254 35.4984 43 36.4162 43 37.5827C43 38.9812 42.4871 40.0636 41.4612 40.8368C40.4319 41.6134 39.0045 42 37.1687 42Z" fill="#111111"></path> <path d="M49.1309 42C47.6007 42 46.3624 41.4972 45.4094 40.4917C44.4698 39.4997 44 38.1714 44 36.5C44 34.8184 44.4698 33.4799 45.4094 32.488C46.3356 31.496 47.5738 31 49.1309 31C50.4866 31 51.5906 31.3635 52.4497 32.0905C53.3087 32.8175 53.8087 33.7993 53.9597 35.0324H51.4262C51.3054 34.4209 51.0436 33.9521 50.6409 33.626C50.2383 33.2999 49.7349 33.1368 49.1309 33.1368C48.3389 33.1368 47.7181 33.4256 47.2685 34.0031C46.8188 34.5806 46.594 35.4129 46.594 36.4966C46.594 37.5837 46.8222 38.4126 47.2785 38.9901C47.7349 39.5676 48.3523 39.8564 49.1309 39.8564C49.7483 39.8564 50.2685 39.6831 50.6913 39.3366C51.1141 38.9901 51.3725 38.4907 51.4664 37.8385H54C53.8658 39.1022 53.3557 40.1078 52.4698 40.862C51.5839 41.6229 50.4698 42 49.1309 42Z" fill="#111111"></path> <path d="M60.4874 31.6181C61.5752 31.6181 62.4299 31.9363 63.0579 32.5726C63.686 33.209 64 34.1111 64 35.2755V42H61.5558V35.6888C61.5558 34.403 60.9277 33.7634 59.6748 33.7634C59.0532 33.7634 58.5255 33.9897 58.095 34.4424C57.6612 34.895 57.4442 35.5216 57.4442 36.3187V42H55V28H57.4442V33.209C58.205 32.1495 59.2184 31.6181 60.4874 31.6181Z" fill="#111111"></path> <path d="M74.6277 40.4917C73.7128 41.4972 72.5089 42 71.0095 42C69.5102 42 68.3062 41.4972 67.3913 40.4917C66.4638 39.4997 66 38.1714 66 36.5C66 34.8286 66.4638 33.5003 67.3913 32.5083C68.3062 31.5028 69.5102 31 71.0095 31C72.5089 31 73.7128 31.496 74.6277 32.488C75.5426 33.4799 76 34.815 76 36.5C75.9968 38.1578 75.5426 39.4861 74.6277 40.4917ZM69.1353 39.0037C69.5864 39.588 70.2122 39.8802 71.0095 39.8802C71.81 39.8802 72.4358 39.5846 72.8837 38.9935C73.3348 38.4024 73.5604 37.5701 73.5604 36.5C73.5604 35.4265 73.3348 34.5976 72.8837 34.0065C72.4327 33.4154 71.8069 33.1198 71.0095 33.1198C70.209 33.1198 69.5832 33.412 69.1353 33.9963C68.6842 34.5806 68.4587 35.4163 68.4587 36.5C68.4587 37.5871 68.6842 38.4228 69.1353 39.0037Z" fill="#111111"></path> <path d="M86.6277 40.4917C85.7128 41.4972 84.5089 42 83.0095 42C81.5102 42 80.3062 41.4972 79.3914 40.4917C78.4638 39.4997 78 38.1714 78 36.5C78 34.8286 78.4638 33.5003 79.3914 32.5083C80.3062 31.5028 81.5102 31 83.0095 31C84.5089 31 85.7128 31.496 86.6277 32.488C87.5426 33.4799 88 34.815 88 36.5C88 38.1578 87.5426 39.4861 86.6277 40.4917ZM81.1353 39.0037C81.5864 39.588 82.2122 39.8802 83.0095 39.8802C83.81 39.8802 84.4359 39.5846 84.8838 38.9935C85.3348 38.4024 85.5604 37.5701 85.5604 36.5C85.5604 35.4265 85.3348 34.5976 84.8838 34.0065C84.4327 33.4154 83.8069 33.1198 83.0095 33.1198C82.209 33.1198 81.5832 33.412 81.1353 33.9963C80.6842 34.5806 80.4587 35.4163 80.4587 36.5C80.4587 37.5871 80.6842 38.4228 81.1353 39.0037Z" fill="#111111"></path> <path d="M93 42H90V28H93V42Z" fill="#111111"></path> <path d="M21.8749 2.10201V40.0578L12.0017 47.3733L2.1284 40.0578V2.10201H21.8749ZM24 0H0V41.1104L11.9983 50L23.9966 41.1104V0H24Z" fill="#111111"></path> <path d="M4 22.6657V37H15.6468V25.7342L6.18875 18.8401V10.7869H8.73766V17.7011L17.8078 24.3105V37H20V23.2553L17.0874 21.1348L20 18.4147V4H4V6.11714H17.8078V17.5169L15.3177 19.8417L10.9299 16.6426V10.7869H13.458V15.7682L15.6468 17.3661V8.66643H4V19.8953L8.73766 23.3524V32.7657H10.9299V24.947L13.458 26.7928V34.8829H6.18875V24.2636L4 22.6657Z" fill="#36B872"></path> <path d="M20 39L12 45L4 39H20Z" fill="#36B872"></path> </svg> 